<svg xmlns="http://www.w3.org/2000/svg" viewBox="0 0 5120 5120" fill="#4a86c8">
<g transform="translate(0,5120) scale(1,-1)">
<path d="M2885 4935 c98 -14 246 -43 252 -49 2 -1 2 -367 1 -813 l-3 -810 -450
260 c-717 413 -1569 907 -1585 917 -13 8 -11 13 10 30 75 61 249 169 369 229
300 148 553 217 936 255 75 8 370 -4 470 -19z"/>
<path d="M3626 4706 c382 -190 697 -468
936 -826 88 -132 215 -389 267 -543 l40 -117 -22 -14 c-19 -12 -202 -118 -907
-524 -91 -52 -233 -135 -317 -183 -84 -49 -155 -89 -158 -89 -3 0 -5 533 -5
1185 0 652 4 1185 8 1185 5 0 76 -33 158 -74z"/>
<path d="M1194 3851 c188 -108 456 -263
596 -344 140 -81 297 -171 348 -200 50 -30 93 -58 95 -63 1 -5 -351 -213 -783
-462 -1166 -673 -1260 -727 -1266 -722 -14 15 -26 215 -21 383 16 574 226
1110 606 1543 30 34 61 62 69 62 8 0 168 -89 356 -197z"/>
<path d="M4943 2665 c31 -263
9 -590 -58 -862 -42 -167 -96 -312 -176 -475 -104 -210 -231 -396 -385 -568
l-39 -43 -698 403 c-384 222 -699 407 -700 412 -1 5 86 60 193 122 107 61 566
326 1020 588 453 262 827 476 831 476 3 0 9 -24 12 -53z"/>
<path d="M1660 1353 c0 -970
-2 -1185 -13 -1185 -26 0 -304 147 -402 212 -449 300 -793 744 -959 1239 -19
56 -33 106 -31 110 3 4 55 36 117 71 276 158 1235 712 1253 724 11 8 23 14 27
14 5 0 8 -533 8 -1185z"/>
<path d="M2365 1466 c176 -102 471 -272 655 -378 641 -370 1004
-581 1008 -585 10 -10 -27 -40 -142 -117 -232 -156 -548 -288 -817 -342 -207
-42 -302 -51 -544 -50 -189 0 -252 4 -355 22 -69 12 -138 25 -155 30 l-30 8
-3 818 -2 818 32 -20 c18 -11 177 -103 353 -204z"/>
</g>
</svg>
